<svg xmlns="http://www.w3.org/2000/svg" width="120" height="40" viewBox="0 0 120 40"><path d="M0.5 2.5V37.9M1.5 1.6V38.5M2.5 1.2V37.9M3.5 1.1V38.7M4.5 1.0V38.8M5.5 2.1V38.8M6.5 1.5V38.7M7.5 1.5V38.8M8.5 1.4V38.9M9.5 2.3V38.4M10.5 2.0V38.3M11.5 1.5V38.7M12.5 1.5V38.3M13.5 2.4V38.8M14.5 1.4V37.3M15.5 1.8V39.0M16.5 1.8V38.8M17.5 2.6V37.8M18.5 2.0V38.7M19.5 1.1V38.9M20.5 2.6V38.6M21.5 1.7V37.0M22.5 1.3V38.0M23.5 2.0V37.4M24.5 1.8V38.8M25.5 1.4V38.6M26.5 2.1V38.3M27.5 1.6V36.8M28.5 1.3V38.6M29.5 1.5V37.7M30.5 1.9V38.8M31.5 1.3V37.7M32.5 1.2V38.3M33.5 1.2V38.9M34.5 1.0V38.6M35.5 2.5V38.8M36.5 1.7V38.9M37.5 2.1V38.7M38.5 2.5V37.7M39.5 1.6V39.0M40.5 1.1V38.8M41.5 1.8V37.5M42.5 2.7V38.8M43.5 1.6V38.0M44.5 1.0V38.9M45.5 1.1V38.3M46.5 1.9V38.8M47.5 1.5V38.9M48.5 2.0V39.0M49.5 1.8V34.6M50.5 1.1V38.4M51.5 1.1V38.6M52.5 1.2V38.7M53.5 1.5V38.9M54.5 3.6V38.6M55.5 1.0V38.8M56.5 1.6V38.4M57.5 1.4V38.7M58.5 4.3V37.0M59.5 2.1V37.5M60.5 1.3V38.4M61.5 4.0V38.3M62.5 3.8V38.8M63.5 2.2V37.9M64.5 2.5V37.8M65.5 2.0V38.3M66.5 1.5V38.5M67.5 2.1V38.6M68.5 1.1V38.6M69.5 1.2V37.9M70.5 1.0V37.5M71.5 1.1V38.3M72.5 2.5V38.3M73.5 1.6V38.8M74.5 1.7V37.1M75.5 1.3V37.5M76.5 3.1V38.1M77.5 1.2V38.5M78.5 1.2V38.4M79.5 1.8V37.6M80.5 1.1V38.2M81.5 1.3V37.8M82.5 2.7V38.7M83.5 1.7V37.9M84.5 1.9V38.2M85.5 2.5V38.2M86.5 2.9V38.1M87.5 2.7V38.5M88.5 1.4V38.3M89.5 1.2V38.3M90.5 1.2V38.6M91.5 1.6V37.9M92.5 1.1V38.5M93.5 1.9V38.5M94.5 1.9V37.5M95.5 1.8V38.6M96.5 1.9V38.4M97.5 3.3V37.6M98.5 1.2V38.8M99.5 1.1V38.5M100.5 3.9V38.3M101.5 1.6V39.0M102.5 3.5V39.0M103.5 1.1V35.0M104.5 2.0V38.1M105.5 1.2V38.4M106.5 2.5V38.8M107.5 1.0V38.6M108.5 1.0V38.8M109.5 1.6V37.9M110.5 1.4V39.0M111.5 1.3V39.0M112.5 1.3V37.6M113.5 1.5V38.5M114.5 1.7V38.8M115.5 1.3V38.5M116.5 1.1V38.1M117.5 1.8V38.3M118.5 1.2V37.9M119.5 1.2V38.8" fill="none" stroke="#4D4D4D" stroke-width="0.7"/></svg>
